# xmcd CD database file
#
# Track frame offsets:
#	150
#	7732
#	14556
#	25500
#	35338
#	42751
#	56318
#	64244
#	77072
#	86409
#	94851
#	101645
#	111978
#
# Disc length: 1649 seconds
#
# Revision: 0
# Processed by: cddbd v1.5.2PL0 Copyright (c) Steve Scherf et al.
# Submitted via: CDex 1.70beta2
#
DISCID=91066f0d
DTITLE=Stringbean - Salute to Uncle Dave Macon
DYEAR=1900
DGENRE=Country
TTITLE0=Tennessee Farmer
TTITLE1=John Henry
TTITLE2=Take My Hand Precious Lord
TTITLE3=Pretty Little Widow
TTITLE4=How Many Biscuits Can You Eat?
TTITLE5=Bully of the Town
TTITLE6=Cripple Creek
TTITLE7=There'll Be Moonshine in the Old Kentucky Hills
TTITLE8=I'm the Man Who Rode the Mule Around the World
TTITLE9=You Can't Do Wrong and Get By
TTITLE10=Hesitation Blues
TTITLE11=Over the Mountain
TTITLE12=Free Little Bird
EXTD=
EXTT0=
EXTT1=
EXTT2=
EXTT3=
EXTT4=
EXTT5=
EXTT6=
EXTT7=
EXTT8=
EXTT9=
EXTT10=
EXTT11=
EXTT12=
PLAYORDER=
